<svg width="635" height="638" viewBox="0 0 635 638" fill="none" xmlns="http://www.w3.org/2000/svg">
<path d="M337.727 51.3256C340.849 51.5374 343.385 52.1772 345.336 53.2448C347.287 54.3124 348.998 55.5127 350.469 56.8457C351.365 57.6297 352.08 57.767 352.619 57.2354C353.153 56.726 353.575 55.4689 353.913 53.4469L355.543 53.5567C355.327 55.3495 355.097 57.5124 354.876 60.0502C354.656 62.588 354.389 65.9545 354.098 70.1548L352.468 70.045C352.29 67.9306 352.095 66.2083 351.859 64.8733C351.65 63.521 351.329 62.3535 350.898 61.3707C350.466 60.3879 349.869 59.4147 349.057 58.4631C347.806 56.6669 346.224 55.3091 344.278 54.4289C342.336 53.5266 340.261 53.0137 338.039 52.8409C335.63 52.6726 333.457 53.1166 331.513 54.1951C329.57 55.2736 327.904 56.8806 326.493 59.0111C325.082 61.1417 323.946 63.707 323.064 66.7021C322.186 69.6751 321.631 72.9768 321.38 76.5802C321.11 80.2724 321.235 83.6571 321.738 86.7071C322.242 89.7572 323.089 92.4183 324.284 94.6683C325.48 96.9183 326.995 98.6805 328.824 99.9773C330.654 101.274 332.751 102.002 335.137 102.165C337.088 102.3 339.123 102.058 341.248 101.417C343.395 100.78 345.129 99.7011 346.472 98.1847C347.891 96.8484 348.908 95.3287 349.533 93.5812C350.159 91.8337 350.742 89.4472 351.287 86.3995L352.917 86.5093C352.613 90.8699 352.383 94.3845 352.248 97.0582C352.113 99.7318 352.024 101.996 351.98 103.851L350.35 103.741C350.296 101.701 350.077 100.393 349.667 99.8348C349.256 99.2764 348.506 99.2944 347.417 99.8889C345.585 100.992 343.644 101.955 341.605 102.732C339.566 103.509 337.03 103.802 333.958 103.578C329.278 103.249 325.258 101.95 321.883 99.6531C318.524 97.3834 316.011 94.2548 314.344 90.2671C312.671 86.3017 312.024 81.6109 312.397 76.2169C312.772 70.9166 314.102 66.3438 316.388 62.4983C318.673 58.6529 321.654 55.7563 325.314 53.7814C328.974 51.8064 333.097 50.9845 337.688 51.2934L337.727 51.3256Z" fill="#FFAA1D"/>
<path d="M383.008 72.9913C386.084 73.8223 388.621 75.1848 390.658 77.111C392.696 79.0373 394.063 81.559 394.734 84.6933C395.405 87.8276 395.159 91.6185 393.952 96.056C392.768 100.498 391.073 103.894 388.917 106.23C386.76 108.566 384.33 110.048 381.604 110.671C378.877 111.293 375.989 111.181 372.913 110.35C369.882 109.529 367.345 108.166 365.236 106.247C363.149 104.333 361.777 101.834 361.101 98.7217C360.447 95.6146 360.71 91.8509 361.895 87.4084C363.101 82.971 364.757 79.5435 366.896 77.1802C369.035 74.817 371.492 73.3179 374.268 72.6828C377.044 72.0478 379.937 72.1382 382.968 72.9592L383.008 72.9913ZM382.632 74.3521C380.261 73.7029 377.926 74.5536 375.681 76.8697C373.437 79.1858 371.486 83.4094 369.823 89.5627C368.166 95.6938 367.736 100.306 368.533 103.398C369.329 106.491 370.913 108.362 373.289 108.989C375.621 109.606 377.923 108.795 380.181 106.528C382.438 104.261 384.384 100.06 386.046 93.9067C387.703 87.7756 388.121 83.1143 387.334 79.9772C386.525 76.8352 384.969 74.947 382.637 74.33L382.632 74.3521Z" fill="#FFAA1D"/>
<path d="M401.022 119.439C399.204 118.611 397.811 117.552 396.837 116.284C395.864 115.016 395.317 113.612 395.215 112.097C395.112 110.582 395.429 109.068 396.131 107.501C397.001 105.598 398.144 104.247 399.532 103.463C400.947 102.662 402.491 102.217 404.171 102.104C405.873 101.997 407.59 102.033 409.36 102.245C411.108 102.451 412.789 102.642 414.338 102.803C415.886 102.965 417.265 102.948 418.429 102.744C419.594 102.539 420.402 101.951 420.858 100.958L422.871 96.5622C423.573 94.995 423.899 93.6464 423.833 92.4893C423.766 91.3323 423.401 90.3644 422.732 89.6081C422.068 88.8295 421.165 88.1837 419.977 87.6605C418.984 87.2043 417.873 86.8614 416.621 86.6266C415.368 86.3919 414.241 86.5349 413.211 87.0728C414.033 87.7703 414.606 88.6448 414.889 89.6642C415.168 90.7058 415.062 91.8009 414.531 92.9171C413.981 94.1221 413.156 94.8923 412.033 95.2228C410.91 95.5532 409.748 95.4322 408.544 94.8818C407.211 94.2793 406.407 93.3993 406.148 92.269C405.889 91.1386 406.005 89.9992 406.514 88.878C407.054 87.7174 407.774 86.9 408.695 86.431C409.616 85.9619 410.694 85.6215 411.93 85.4097C413.282 85.2006 414.866 85.2067 416.715 85.4823C418.541 85.7528 420.464 86.3246 422.449 87.2369C424.312 88.0749 425.824 89.0206 426.99 90.0519C428.157 91.0832 428.99 92.2495 429.485 93.5728C430.105 95.0641 430.247 96.6111 429.923 98.2631C429.598 99.9151 428.943 101.796 427.978 103.91L419.817 121.773C419.319 122.85 419.107 123.688 419.187 124.266C419.267 124.843 419.609 125.293 420.266 125.58C420.69 125.769 421.161 125.851 421.679 125.828C422.197 125.804 422.829 125.69 423.586 125.534L423.736 126.943C422.497 127.27 421.32 127.425 420.178 127.425C419.059 127.43 417.777 127.119 416.36 126.474C414.988 125.84 413.961 125.12 413.285 124.292C412.609 123.464 412.278 122.55 412.226 121.536C412.197 120.527 412.446 119.418 412.996 118.213C411.047 119.523 409.08 120.293 407.094 120.523C405.108 120.753 403.087 120.415 401.017 119.461L401.022 119.439ZM405.549 117.752C406.754 118.302 408.044 118.475 409.418 118.271C410.792 118.067 412.251 117.486 413.777 116.5L419.658 103.603C418.875 104.079 417.905 104.351 416.765 104.444C415.626 104.538 414.425 104.595 413.157 104.636C411.889 104.678 410.619 104.835 409.4 105.074C408.159 105.308 407.018 105.821 405.939 106.581C404.859 107.34 403.966 108.515 403.232 110.122C402.456 111.812 402.278 113.334 402.718 114.692C403.132 116.066 404.071 117.07 405.549 117.752Z" fill="#FFAA1D"/>
<path d="M458.882 107.637C460.222 108.521 461.41 109.557 462.414 110.692C463.412 111.849 464.179 113 464.699 114.212C465.263 115.435 465.507 116.632 465.458 117.786C465.408 118.94 465.048 120.025 464.387 120.995C463.605 122.195 462.656 122.891 461.531 123.127C460.406 123.364 459.319 123.12 458.248 122.39C457.172 121.682 456.483 120.805 456.165 119.731C455.847 118.657 456.042 117.582 456.782 116.466C457.458 115.429 458.325 114.785 459.339 114.523C460.376 114.267 461.347 114.298 462.254 114.619C462.301 113.79 461.992 112.882 461.383 111.859C460.769 110.858 459.932 110.018 458.923 109.325C457.847 108.617 456.651 108.232 455.32 108.142C453.988 108.053 452.55 108.336 451.054 108.979C449.531 109.639 447.962 110.708 446.294 112.222C444.625 113.735 442.953 115.784 441.255 118.362C439.062 121.692 437.692 124.578 437.183 127.051C436.651 129.519 436.745 131.591 437.464 133.268C438.182 134.944 439.262 136.259 440.747 137.222C441.7 137.856 442.786 138.31 444.041 138.638C445.278 138.939 446.642 138.989 448.132 138.788C449.605 138.56 451.179 137.981 452.839 137.025L453.694 138.196C452.395 139.21 450.844 140.097 449.025 140.83C447.205 141.564 445.249 141.87 443.182 141.732C441.111 141.616 438.98 140.834 436.788 139.386C434.294 137.73 432.434 135.634 431.237 133.081C430.017 130.523 429.612 127.658 429.99 124.526C430.367 121.394 431.662 118.118 433.92 114.71C436.113 111.38 438.629 108.891 441.479 107.201C444.324 105.532 447.256 104.722 450.292 104.798C453.328 104.874 456.196 105.799 458.937 107.603L458.882 107.637Z" fill="#FFAA1D"/>
<path d="M497.589 114.911L479.854 133.794C482.74 132.461 485.357 132.116 487.733 132.743C490.109 133.37 492.161 134.507 493.928 136.186C495.316 137.477 496.267 138.74 496.819 139.913C497.366 141.108 497.637 142.288 497.632 143.452C497.634 144.688 497.3 145.965 496.592 147.251C495.906 148.542 494.723 150.071 493.067 151.843L480.017 165.741C478.645 167.181 478.013 168.438 478.099 169.506C478.19 170.552 478.908 171.716 480.251 172.996L479.235 174.097C478.652 173.476 477.764 172.554 476.548 171.325C475.355 170.102 474.169 168.949 472.995 167.847C471.782 166.712 470.581 165.626 469.37 164.585C468.16 163.543 467.259 162.782 466.69 162.304L467.706 161.204C468.88 162.307 469.952 162.827 470.921 162.765C471.89 162.703 473.064 161.941 474.414 160.496L488.841 145.137C489.788 144.137 490.547 143.142 491.136 142.179C491.731 141.194 491.977 140.2 491.864 139.149C491.773 138.103 491.163 137.08 490.046 136.037C488.794 134.87 487.343 134.171 485.711 133.967C484.056 133.759 482.369 134.009 480.626 134.713C478.883 135.417 477.272 136.57 475.772 138.168L463.98 150.716C462.608 152.156 461.937 153.381 461.927 154.358C461.917 155.335 462.499 156.374 463.695 157.482L462.679 158.583C462.113 157.989 461.299 157.154 460.241 156.053C459.161 154.948 458.037 153.833 456.863 152.73C455.65 151.595 454.392 150.45 453.085 149.318C451.779 148.185 450.804 147.337 450.134 146.79L451.151 145.69C452.499 146.948 453.706 147.592 454.749 147.617C455.815 147.646 457.027 146.917 458.377 145.472L486.156 115.909C487.624 114.351 488.429 112.947 488.592 111.701C488.756 110.456 488.135 109.174 486.713 107.829L487.729 106.729C488.732 107.863 489.751 108.931 490.789 109.91C491.924 110.981 493.083 111.941 494.218 112.802C495.375 113.668 496.5 114.364 497.584 114.933L497.589 114.911Z" fill="#FFAA1D"/>
<path d="M516.746 162.082L492.684 181.431C491.12 182.688 490.325 183.838 490.251 184.893C490.177 185.949 490.737 187.194 491.902 188.644L490.738 189.572C490.281 188.909 489.529 187.901 488.531 186.535C487.533 185.168 486.485 183.814 485.372 182.445C484.336 181.14 483.23 179.843 482.084 178.513C480.938 177.183 480.059 176.217 479.481 175.574L480.645 174.647C481.811 176.097 482.911 176.904 483.947 177.067C484.982 177.23 486.293 176.685 487.852 175.45L505.262 161.437C506.935 160.111 507.942 158.845 508.283 157.64C508.623 156.434 508.183 155.076 506.926 153.512L508.09 152.585C508.921 153.867 509.798 155.043 510.691 156.153C511.692 157.403 512.717 158.543 513.711 159.512C514.722 160.508 515.719 161.362 516.724 162.077L516.746 162.082ZM527.436 148.004C528.368 149.145 528.762 150.399 528.668 151.754C528.573 153.108 527.998 154.214 526.916 155.09C525.839 155.943 524.644 156.281 523.288 156.093C521.937 155.882 520.802 155.231 519.897 154.072C518.965 152.93 518.571 151.676 518.666 150.322C518.76 148.968 519.335 147.862 520.417 146.986C521.494 146.133 522.689 145.795 524.045 145.983C525.396 146.193 526.531 146.845 527.436 148.004Z" fill="#FFAA1D"/>
<path d="M537.376 192.544C538.336 194.182 538.917 195.641 539.119 196.922C539.32 198.203 539.256 199.424 538.93 200.562C538.589 201.768 537.898 202.871 536.875 203.9C535.851 204.929 534.268 206.065 532.196 207.301L515.809 217.069C514.09 218.082 513.133 219.125 512.926 220.151C512.692 221.194 513.076 222.492 514.024 224.081L512.735 224.84C512.359 224.126 511.77 223.015 510.967 221.506C510.164 219.997 509.329 218.527 508.484 217.102C507.657 215.704 506.819 214.35 505.927 213.031C505.062 211.694 504.398 210.706 503.941 210.044L505.23 209.285C506.058 210.683 506.954 211.467 507.886 211.676C508.84 211.89 510.17 211.467 511.889 210.454L529.994 199.674C531.18 198.961 532.183 198.231 533.031 197.466C533.856 196.695 534.381 195.811 534.588 194.785C534.79 193.782 534.515 192.624 533.733 191.33C532.837 189.823 531.614 188.732 530.059 188.08C528.504 187.428 526.784 187.204 524.919 187.415C523.031 187.62 521.161 188.272 519.328 189.375L504.584 198.161C502.865 199.173 501.896 200.167 501.632 201.134C501.373 202.078 501.649 203.235 502.443 204.579L501.153 205.338C500.817 204.657 500.275 203.649 499.535 202.271C498.814 200.92 498.013 199.505 497.168 198.08C496.34 196.681 495.446 195.268 494.495 193.796C493.544 192.324 492.812 191.227 492.342 190.515L493.632 189.756C494.58 191.344 495.557 192.286 496.579 192.609C497.585 192.905 498.945 192.558 500.663 191.546L519.873 180.104C521.705 179.001 522.887 177.891 523.395 176.77C523.908 175.626 523.643 174.215 522.631 172.495L523.92 171.736C524.566 173.116 525.275 174.418 526.005 175.631C526.837 177.007 527.673 178.267 528.538 179.394C529.404 180.52 530.282 181.487 531.163 182.338L524.49 186.316C527.645 185.859 530.28 186.265 532.423 187.516C534.544 188.761 536.222 190.42 537.452 192.515L537.376 192.544Z" fill="#FFAA1D"/>
<path d="M504.842 242.575C503.91 240.082 503.28 237.702 502.955 235.415C502.652 233.132 502.748 231.149 503.255 229.515C503.762 227.881 504.805 226.763 506.363 226.157C507.817 225.598 509.348 225.732 510.934 226.555C512.521 227.378 514.017 228.809 515.445 230.855L514.55 231.726C513.792 230.95 512.876 230.464 511.796 230.292C510.716 230.119 509.643 230.228 508.572 230.639C506.609 231.387 505.464 232.855 505.081 235.077C504.699 237.298 505.092 239.904 506.222 242.862C506.987 244.852 507.957 246.655 509.154 248.276C510.356 249.875 511.729 251.022 513.318 251.729C514.907 252.436 516.611 252.422 518.421 251.733C519.848 251.191 520.834 250.224 521.397 248.859C521.965 247.471 521.665 245.283 520.527 242.253L518.755 237.589C518.172 236.036 517.761 234.546 517.523 233.117C517.285 231.688 517.409 230.41 517.868 229.301C518.327 228.192 519.283 227.358 520.688 226.812C522.29 226.216 524.04 226.306 525.962 227.087C527.884 227.869 530.131 229.586 532.71 232.216L532.409 233.244C531.215 232.23 530.058 231.364 528.938 230.646C527.817 229.929 526.738 229.756 525.666 230.168C524.239 230.71 523.928 231.992 524.705 234.031L527.702 241.954C528.491 244.042 528.931 246.029 529.015 247.936C529.099 249.843 528.747 251.512 527.928 252.983C527.108 254.454 525.739 255.568 523.776 256.316C521.688 257.106 519.483 257.17 517.112 256.521C514.763 255.876 512.51 254.391 510.338 252.132C508.171 249.85 506.319 246.683 504.77 242.582L504.842 242.575ZM531.687 232.826C530.822 230.557 530.406 228.366 530.443 226.229C530.458 224.088 531.047 222.193 532.21 220.543C533.351 218.887 535.157 217.592 537.6 216.672C540.044 215.753 542.24 215.523 544.231 215.994C546.223 216.465 547.924 217.5 549.363 219.082C550.802 220.664 551.952 222.6 552.822 224.847C553.717 227.193 554.145 229.433 554.096 231.52C554.047 233.607 553.435 235.498 552.272 237.148C551.104 238.82 549.298 240.116 546.855 241.035C544.411 241.955 542.215 242.184 540.268 241.723C538.304 241.235 536.619 240.228 535.193 238.695C533.766 237.162 532.621 235.204 531.727 232.858L531.687 232.826ZM532.885 232.372C533.468 233.925 534.583 234.875 536.234 235.199C537.886 235.524 540.489 235.036 544.031 233.688C547.573 232.339 549.88 230.993 550.907 229.638C551.933 228.284 552.169 226.822 551.585 225.269C551.027 223.814 549.907 222.887 548.221 222.508C546.535 222.129 543.91 222.612 540.367 223.96C536.825 225.309 534.536 226.683 533.548 228.069C532.561 229.456 532.331 230.896 532.889 232.35L532.885 232.372ZM550.929 236.799L550.935 235.425C552.723 235.454 554.485 236.013 556.204 237.075C557.923 238.137 559.108 239.499 559.716 241.151C560.181 242.398 560.213 243.5 559.801 244.504C559.39 245.507 558.574 246.232 557.328 246.698C555.95 247.228 554.83 247.233 553.991 246.718C553.129 246.198 552.551 245.555 552.267 244.745C552.007 244.034 551.989 243.284 552.257 242.506C552.525 241.727 553.156 241.099 554.153 240.601C555.173 240.107 556.631 239.945 558.559 240.075L558.579 240.919C557.192 239.418 555.954 238.394 554.882 237.874C553.789 237.349 552.495 236.988 550.946 236.826L550.929 236.799Z" fill="#FFAA1D"/>
<path d="M553.989 300.772L549.265 301.366L546.046 275.865L550.77 275.271L553.989 300.772Z" fill="#FFAA1D"/>
<path d="M580.936 351.024L579.531 350.848C579.68 349.25 579.656 348.009 579.454 347.148C579.251 346.286 578.739 345.659 577.964 345.274C577.165 344.885 575.901 344.601 574.158 344.373L538.85 340.03C537.24 339.831 536.031 339.816 535.202 339.98C534.373 340.143 533.783 340.593 533.431 341.33C533.079 342.066 532.807 343.171 532.638 344.648L532.075 349.23C531.831 351.25 531.906 352.992 532.299 354.455C532.693 355.919 533.39 357.171 534.404 358.261C535.417 359.352 536.779 360.24 538.523 360.982C540.246 361.718 542.291 362.364 544.655 362.942L544.451 364.575C542.965 364.241 540.983 363.935 538.532 363.641C537.58 363.52 536.209 363.399 534.38 363.244C532.55 363.09 530.661 362.992 528.713 362.95C529.108 360.568 529.485 357.856 529.882 354.845C530.278 351.833 530.623 349.16 530.897 346.798C531.026 345.708 531.197 344.324 531.415 342.625C531.634 340.926 531.833 339.106 532.062 337.153C532.269 335.195 532.503 333.219 532.72 331.217C532.937 329.214 533.139 327.278 533.316 325.453L534.721 325.629C534.616 327.237 534.667 328.461 534.853 329.295C535.038 330.129 535.533 330.73 536.358 331.102C537.161 331.469 538.425 331.753 540.129 331.949L575.166 336.254C576.914 336.461 578.211 336.496 579.063 336.337C579.914 336.179 580.554 335.717 580.965 334.923C581.376 334.13 581.685 332.964 581.94 331.413L583.345 331.589C583.173 332.669 582.952 334.064 582.684 335.776C582.416 337.487 582.163 339.342 581.929 341.317C581.712 343.11 581.523 344.885 581.334 346.661C581.167 348.442 581.03 349.879 580.936 351.024Z" fill="#FFAA1D"/>
<path d="M569.905 401.176L522.024 403.939C520.139 404.028 518.775 404.397 517.93 405.047C517.085 405.696 516.516 406.361 516.213 407.085L514.868 406.643C515.312 405.601 515.783 404.331 516.273 402.88C516.762 401.428 517.256 399.954 517.733 398.453C518.345 396.562 518.904 394.8 519.411 393.165C519.918 391.531 520.283 390.214 520.513 389.194L521.858 389.636C521.197 391.958 521.119 393.549 521.63 394.386C522.141 395.224 523.671 395.568 526.271 395.406L563.132 393.874L563.99 395.349L538.24 374.599C536.473 373.129 534.936 372.085 533.626 371.487C532.315 370.89 531.223 370.668 530.333 370.794C529.442 370.92 528.676 371.424 528.068 372.267C527.437 373.104 526.879 374.237 526.383 375.618L525.037 375.175C525.568 373.85 526.06 372.492 526.529 371.128C526.998 369.765 527.43 368.464 527.821 367.246C528.181 366.162 528.467 365.2 528.728 364.35C528.966 363.494 529.163 362.723 529.296 362.03L530.641 362.472C530.55 363.5 530.808 364.631 531.417 365.863C532.026 367.095 533.246 368.512 535.136 370.055L570.6 398.909C570.494 399.281 570.364 399.648 570.225 400.06C570.086 400.471 569.979 400.844 569.85 401.211L569.905 401.176ZM538.89 398.987L537.544 398.545L544.083 378.359L545.208 379.474L538.89 398.987Z" fill="#FFAA1D"/>
<path d="M529.988 453.444C527.477 452.693 525.31 452.067 523.484 451.586C521.658 451.106 520.182 450.518 519.029 449.84C517.857 449.04 517.203 448.217 517.04 447.388C516.899 446.564 517.014 445.844 517.38 445.25C517.769 444.661 518.35 444.256 519.122 444.033C519.894 443.81 520.922 444.111 522.144 444.898C523.303 445.648 524.465 446.702 525.596 448.098C526.727 449.495 528.23 451.207 530.082 453.232L529.971 453.417L529.988 453.444ZM530.143 453.479C528.156 455.27 526.527 456.815 525.224 458.154C523.921 459.493 522.671 460.495 521.478 461.136C520.214 461.784 519.193 461.974 518.392 461.701C517.596 461.406 517.05 460.933 516.741 460.234C516.419 459.696 516.364 459.007 516.592 458.196C516.821 457.385 517.57 456.645 518.835 455.996C520.027 455.355 521.528 454.9 523.292 454.62C525.056 454.34 527.301 453.889 530.033 453.244L530.143 453.479ZM530.156 453.318L529.897 453.33C529.368 450.81 528.835 448.616 528.312 446.797C527.789 444.978 527.536 443.406 527.598 442.091C527.663 440.661 528.021 439.692 528.68 439.141C529.335 438.612 530.024 438.347 530.747 438.346C531.415 438.38 532.023 438.68 532.611 439.278C533.199 439.877 533.439 440.886 533.378 442.294C533.306 443.653 532.94 445.179 532.351 446.865C531.741 448.546 530.998 450.711 530.178 453.323L530.156 453.318ZM532.516 464.595C532.451 466.025 532.094 466.994 531.434 467.545C530.774 468.096 530.091 468.338 529.368 468.339C528.69 468.35 528.059 468.045 527.493 467.452C526.932 466.836 526.671 465.822 526.736 464.391C526.808 463.032 527.174 461.506 527.802 459.853C528.435 458.177 529.183 455.99 529.973 453.301L530.195 453.351C530.764 455.903 531.296 458.097 531.798 459.911C532.299 461.725 532.529 463.292 532.489 464.612L532.516 464.595ZM541.28 450.69C540.087 451.331 538.582 451.808 536.79 452.105C534.999 452.402 532.781 452.836 530.119 453.38L529.971 453.207C531.926 451.455 533.555 449.91 534.863 448.549C536.171 447.187 537.443 446.191 538.636 445.55C539.868 444.941 540.885 444.773 541.708 445.051C542.509 445.325 543.077 445.802 543.396 446.456C543.708 447.039 543.741 447.723 543.517 448.512C543.293 449.3 542.549 450.019 541.28 450.69ZM542.744 461.391C542.345 462.024 541.738 462.447 540.953 462.621C540.168 462.794 539.163 462.498 537.981 461.743C536.86 461.025 535.721 459.977 534.541 458.593C533.36 457.208 531.862 455.473 530.042 453.409L530.154 453.225C532.633 454.015 534.799 454.641 536.63 455.099C538.484 455.562 539.96 456.15 541.08 456.868C542.284 457.628 542.966 458.434 543.079 459.276C543.216 460.122 543.105 460.82 542.744 461.391Z" fill="#FFAA1D"/>
<path d="M495.992 515.947C493.676 518.06 491.475 519.454 489.362 520.145C487.25 520.836 485.202 521.238 483.209 521.396C482.02 521.502 481.434 521.93 481.452 522.68C481.448 523.425 482.071 524.591 483.308 526.244L482.104 527.348C480.951 525.947 479.549 524.304 477.855 522.408C476.182 520.517 473.904 518 471.039 514.886L472.242 513.781C473.906 515.087 475.277 516.141 476.41 516.908C477.543 517.676 478.604 518.241 479.617 518.608C480.63 518.975 481.749 519.18 482.987 519.272C485.151 519.595 487.231 519.363 489.203 518.571C491.176 517.778 492.996 516.626 494.637 515.129C496.424 513.503 497.575 511.594 498.126 509.456C498.676 507.319 498.659 505.008 498.081 502.5C497.497 500.015 496.426 497.42 494.861 494.737C493.296 492.055 491.29 489.366 488.855 486.721C486.346 483.99 483.816 481.766 481.248 480.024C478.68 478.281 476.175 477.089 473.72 476.398C471.26 475.729 468.935 475.602 466.739 476.041C464.543 476.481 462.565 477.505 460.805 479.114C459.369 480.423 458.157 482.085 457.151 484.074C456.145 486.062 455.741 488.069 455.916 490.09C455.896 492.043 456.309 493.838 457.153 495.473C457.993 497.13 459.322 499.2 461.163 501.688L459.96 502.793C456.998 499.587 454.597 496.996 452.747 495.065C450.902 493.113 449.308 491.496 447.992 490.198L449.195 489.093C450.706 490.458 451.822 491.198 452.502 491.281C453.183 491.364 453.682 490.8 454.018 489.617C454.486 487.531 455.115 485.458 455.939 483.452C456.763 481.446 458.319 479.394 460.585 477.293C464.05 474.109 467.764 472.099 471.715 471.215C475.688 470.336 479.667 470.671 483.708 472.185C487.749 473.699 491.583 476.448 495.253 480.443C498.849 484.351 501.258 488.459 502.459 492.761C503.66 497.064 503.726 501.228 502.664 505.231C501.574 509.252 499.353 512.809 495.969 515.942L495.992 515.947Z" fill="#FFAA1D"/>
<path d="M449.117 533.968C446.415 535.622 443.646 536.538 440.864 536.683C438.059 536.822 435.289 536.083 432.563 534.421C429.814 532.755 427.249 529.964 424.844 526.044C422.439 522.124 421.14 518.569 420.921 515.396C420.701 512.223 421.307 509.422 422.729 507.038C424.155 504.631 426.219 502.6 428.943 500.951C431.618 499.315 434.365 498.393 437.18 498.21C439.999 498.004 442.769 498.743 445.473 500.399C448.177 502.056 450.743 504.847 453.148 508.767C455.553 512.687 456.874 516.247 457.137 519.43C457.401 522.613 456.79 525.436 455.332 527.882C453.873 530.328 451.809 532.359 449.156 534L449.117 533.968ZM448.387 532.755C450.497 531.458 451.469 529.205 451.331 525.981C451.193 522.757 449.462 518.428 446.161 513.001C442.837 507.569 439.797 504.089 437.002 502.529C434.228 500.973 431.765 500.839 429.678 502.142C427.623 503.405 426.634 505.63 426.727 508.845C426.825 512.037 428.512 516.355 431.836 521.787C435.16 527.219 438.222 530.705 441.057 532.297C443.896 533.868 446.328 534.041 448.405 532.783L448.387 532.755Z" fill="#FFAA1D"/>
<path d="M403.016 515.103C404.863 514.352 406.583 514.063 408.198 514.239C409.812 514.415 411.177 514.978 412.337 515.938C413.496 516.898 414.398 518.173 415.043 519.763C415.823 521.686 416.03 523.458 415.632 525.023C415.234 526.589 414.513 528.035 413.429 529.33C412.341 530.647 411.135 531.868 409.761 533.005C408.387 534.141 407.117 535.231 405.933 536.247C404.727 537.258 403.802 538.263 403.159 539.26C402.498 540.231 402.389 541.232 402.789 542.254L404.601 546.74C405.246 548.33 406.012 549.482 406.896 550.216C407.78 550.951 408.738 551.353 409.754 551.395C410.77 551.436 411.868 551.217 413.07 550.741C414.07 550.336 415.11 549.754 416.14 549.006C417.17 548.259 417.843 547.338 418.164 546.221C417.086 546.352 416.082 546.15 415.127 545.632C414.171 545.114 413.473 544.281 413.004 543.151C412.512 541.921 412.512 540.779 413.044 539.756C413.577 538.734 414.452 537.951 415.681 537.458C417.042 536.902 418.223 536.934 419.235 537.511C420.247 538.088 420.98 538.975 421.449 540.106C421.929 541.286 422.032 542.382 421.742 543.365C421.451 544.349 420.962 545.381 420.259 546.436C419.492 547.569 418.372 548.716 416.927 549.859C415.481 551.003 413.745 551.988 411.719 552.815C409.823 553.578 408.113 554.033 406.544 554.17C404.975 554.307 403.575 554.109 402.276 553.561C400.773 552.99 399.525 552.01 398.571 550.654C397.601 549.27 396.692 547.504 395.824 545.351L388.449 527.144C387.998 526.041 387.556 525.312 387.074 524.971C386.591 524.629 386.044 524.576 385.377 524.846C384.94 525.027 384.55 525.313 384.228 525.707C383.907 526.101 383.533 526.623 383.147 527.305L382.034 526.449C382.658 525.331 383.346 524.343 384.11 523.536C384.879 522.706 385.993 522.001 387.43 521.414C388.839 520.845 390.08 520.611 391.136 520.685C392.191 520.759 393.11 521.129 393.866 521.811C394.626 522.472 395.25 523.428 395.743 524.657C396.146 522.347 396.937 520.38 398.134 518.784C399.337 517.166 400.985 515.952 403.088 515.096L403.016 515.103ZM401.132 519.551C399.902 520.044 398.879 520.863 398.085 522.013C397.29 523.163 396.707 524.618 396.353 526.403L401.654 539.528C401.858 538.618 402.311 537.741 403.024 536.852C403.736 535.963 404.525 535.045 405.368 534.092C406.212 533.14 406.976 532.123 407.635 531.059C408.293 529.994 408.723 528.809 408.923 527.502C409.123 526.195 408.868 524.739 408.211 523.1C407.524 521.384 406.531 520.205 405.253 519.568C403.974 518.931 402.578 518.92 401.092 519.519L401.132 519.551Z" fill="#FFAA1D"/>
<path d="M371.801 565.245C370.226 565.614 368.68 565.756 367.151 565.716C365.627 565.653 364.259 565.416 363.034 564.954C361.755 564.527 360.736 563.878 359.921 563.043C359.107 562.207 358.586 561.204 358.311 560.047C357.991 558.67 358.117 557.486 358.733 556.505C359.345 555.547 360.256 554.913 361.512 554.612C362.768 554.312 363.885 554.423 364.868 554.923C365.851 555.424 366.512 556.318 366.803 557.619C367.091 558.826 366.967 559.894 366.46 560.805C365.947 561.739 365.257 562.423 364.39 562.858C364.978 563.456 365.838 563.882 366.975 564.114C368.111 564.346 369.302 564.334 370.509 564.046C371.765 563.745 372.876 563.156 373.852 562.233C374.829 561.31 375.616 560.089 376.169 558.558C376.728 557.005 377.036 555.116 377.076 552.864C377.116 550.612 376.772 547.994 376.076 544.971C375.178 541.086 374.004 538.118 372.563 536.023C371.123 533.928 369.558 532.597 367.86 531.96C366.157 531.344 364.439 531.214 362.739 531.625C361.631 531.889 360.522 532.362 359.458 533.055C358.371 533.744 357.412 534.694 356.553 535.923C355.694 537.152 355.047 538.684 354.606 540.543L353.178 540.362C353.338 538.72 353.776 536.977 354.488 535.156C355.2 533.334 356.336 531.701 357.846 530.269C359.357 528.837 361.401 527.828 363.935 527.232C366.837 526.555 369.658 526.653 372.327 527.532C375.018 528.416 377.374 530.065 379.413 532.504C381.429 534.938 382.924 538.141 383.851 542.102C384.75 545.987 384.84 549.527 384.117 552.745C383.394 555.962 381.953 558.645 379.814 560.799C377.676 562.952 375.019 564.407 371.848 565.139L371.801 565.245Z" fill="#FFAA1D"/>
<path d="M339.895 588.379L338.366 562.511C337.363 565.526 335.809 567.671 333.727 568.951C331.645 570.232 329.384 570.959 326.977 571.094C325.087 571.206 323.517 571.04 322.282 570.622C321.048 570.205 320.001 569.574 319.154 568.778C318.251 567.922 317.568 566.813 317.093 565.401C316.64 563.994 316.319 562.103 316.19 559.673L315.061 540.632C314.947 538.649 314.48 537.308 313.648 536.655C312.815 536.002 311.484 535.703 309.639 535.824L309.554 534.337C310.415 534.344 311.7 534.329 313.409 534.294C315.118 534.258 316.783 534.213 318.391 534.108C320.044 534.013 321.657 533.886 323.258 533.709C324.832 533.55 326.004 533.417 326.768 533.332L326.854 534.82C325.245 534.925 324.13 535.327 323.514 536.098C322.898 536.868 322.643 538.21 322.752 540.215L323.994 561.24C324.082 562.612 324.271 563.843 324.557 564.956C324.87 566.052 325.421 566.922 326.253 567.575C327.062 568.223 328.238 568.487 329.748 568.407C331.45 568.3 332.953 567.728 334.235 566.688C335.518 565.647 336.51 564.239 337.207 562.484C337.882 560.724 338.161 558.759 338.043 556.588L337.035 539.392C336.922 537.409 336.498 536.078 335.809 535.41C335.098 534.738 333.95 534.456 332.346 534.539L332.261 533.051C333.078 533.048 334.247 533.031 335.785 533.027C337.329 533.001 338.9 532.958 340.509 532.853C342.161 532.758 343.846 532.624 345.585 532.455C347.302 532.282 348.59 532.151 349.453 532.042L349.538 533.53C347.698 533.629 346.385 534.08 345.658 534.826C344.927 535.594 344.6 536.943 344.731 538.953L347.118 579.466C347.246 581.592 347.713 583.142 348.493 584.133C349.299 585.107 350.65 585.527 352.606 585.43L352.691 586.918C351.167 586.855 349.695 586.874 348.274 586.975C346.715 587.067 345.23 587.246 343.802 587.485C342.373 587.723 341.107 588.068 339.947 588.46L339.895 588.379Z" fill="#FFAA1D"/>
<path d="M292.484 569.871L294.997 539.084C295.164 537.094 294.867 535.722 294.158 534.933C293.45 534.145 292.154 533.69 290.297 533.553L290.422 532.066C291.213 532.174 292.458 532.337 294.134 532.55C295.811 532.764 297.52 532.938 299.26 533.073C300.908 533.21 302.631 533.317 304.387 533.385C306.143 533.453 307.435 533.511 308.296 533.518L308.171 535.005C306.319 534.845 304.98 535.104 304.157 535.758C303.312 536.407 302.808 537.716 302.663 539.711L300.851 561.984C300.676 564.113 300.902 565.702 301.518 566.796C302.139 567.868 303.445 568.488 305.435 568.655L305.31 570.142C303.809 569.875 302.36 569.689 300.939 569.58C299.337 569.453 297.83 569.417 296.424 569.451C295.013 569.507 293.703 569.632 292.507 569.876L292.484 569.871ZM295.345 587.321C293.881 587.201 292.681 586.629 291.764 585.63C290.846 584.631 290.437 583.444 290.559 582.073C290.68 580.701 291.255 579.595 292.328 578.764C293.4 577.932 294.671 577.565 296.135 577.685C297.6 577.804 298.8 578.376 299.717 579.375C300.635 580.374 301.044 581.561 300.922 582.933C300.801 584.304 300.226 585.41 299.153 586.241C298.081 587.073 296.81 587.44 295.345 587.321Z" fill="#FFAA1D"/>
<path d="M256.955 564.128C255.108 563.736 253.623 563.193 252.529 562.457C251.436 561.722 250.604 560.859 249.99 559.859C249.342 558.804 248.975 557.533 248.929 556.078C248.861 554.617 249.085 552.686 249.569 550.324L253.441 531.637C253.858 529.679 253.73 528.276 253.109 527.413C252.487 526.551 251.27 525.951 249.468 525.57L249.797 524.105C250.546 524.297 251.779 524.62 253.432 525.038C255.086 525.457 256.728 525.825 258.352 526.167C259.932 526.499 261.5 526.781 263.073 527.041C264.646 527.301 265.841 527.477 266.628 527.607L266.299 529.071C264.741 528.745 263.547 528.873 262.771 529.421C261.968 529.987 261.381 531.253 260.969 533.189L256.686 553.811C256.387 555.142 256.268 556.398 256.267 557.54C256.267 558.682 256.583 559.662 257.188 560.497C257.792 561.332 258.832 561.892 260.323 562.204C262.036 562.565 263.659 562.394 265.193 561.689C266.726 560.985 268.045 559.883 269.161 558.339C270.277 556.795 271.056 554.988 271.502 552.897L274.995 536.107C275.412 534.149 275.351 532.76 274.818 531.918C274.285 531.075 273.25 530.493 271.737 530.177L272.066 528.712C272.771 528.894 273.892 529.192 275.391 529.576C276.889 529.959 278.437 530.33 280.066 530.649C281.646 530.981 283.303 531.283 285.031 531.578C286.759 531.873 288.044 532.069 288.902 532.192L288.573 533.656C286.793 533.279 285.421 533.368 284.508 533.908C283.594 534.449 282.94 535.7 282.528 537.636L277.983 559.528C277.558 561.624 277.569 563.235 278.06 564.371C278.55 565.506 279.772 566.294 281.712 566.683L281.383 568.147C279.944 567.707 278.512 567.339 277.131 567.052C275.551 566.721 274.062 566.503 272.647 566.371C271.254 566.245 269.929 566.227 268.696 566.323L270.263 558.726C268.461 561.352 266.383 563.029 264.029 563.759C261.674 564.489 259.321 564.589 256.937 564.1L256.955 564.128Z" fill="#FFAA1D"/>
<path d="M214.784 543.347L215.783 544.294C214.539 545.576 212.917 546.47 210.96 546.986C209.003 547.502 207.203 547.424 205.581 546.757C204.345 546.246 203.533 545.504 203.079 544.516C202.647 543.534 202.687 542.424 203.193 541.209C203.756 539.843 204.52 539.036 205.49 538.764C206.459 538.493 207.315 538.522 208.101 538.862C208.803 539.159 209.345 539.654 209.737 540.395C210.13 541.136 210.14 542.024 209.807 543.091C209.474 544.158 208.581 545.333 207.167 546.647L206.547 546.088C208.589 546.127 210.173 545.924 211.299 545.477C212.419 545.053 213.583 544.335 214.761 543.342L214.784 543.347ZM242.28 505.912C244.731 506.929 246.889 508.113 248.775 509.469C250.661 510.825 252.019 512.249 252.849 513.741C253.679 515.233 253.776 516.77 253.151 518.307C252.546 519.756 251.411 520.76 249.716 521.358C248.025 521.934 245.948 522.05 243.49 521.685L243.466 520.444C244.541 520.429 245.526 520.091 246.398 519.424C247.27 518.758 247.929 517.903 248.35 516.856C249.154 514.939 248.877 513.058 247.51 511.259C246.143 509.46 244.011 507.956 241.074 506.713C239.091 505.895 237.137 505.362 235.14 505.123C233.165 504.889 231.366 505.115 229.772 505.782C228.177 506.449 227.015 507.68 226.258 509.492C225.663 510.896 225.679 512.275 226.308 513.628C226.936 514.982 228.716 516.291 231.697 517.543L236.299 519.463C237.832 520.11 239.206 520.839 240.4 521.643C241.594 522.447 242.45 523.409 242.946 524.523C243.441 525.636 243.394 526.884 242.799 528.289C242.141 529.866 240.868 531.072 238.975 531.929C237.081 532.785 234.301 533.233 230.606 533.289L230.066 532.375C231.617 532.21 233.046 531.972 234.329 531.654C235.612 531.336 236.484 530.67 236.911 529.6C237.506 528.196 236.779 527.076 234.779 526.231L226.961 522.959C224.894 522.099 223.148 521.054 221.728 519.802C220.281 518.568 219.32 517.14 218.796 515.53C218.272 513.921 218.434 512.163 219.238 510.245C220.098 508.178 221.565 506.526 223.664 505.272C225.763 504.019 228.379 503.371 231.501 503.374C234.646 503.381 238.212 504.205 242.241 505.88L242.28 505.912ZM230.898 532.095C233.137 533.018 235.009 534.231 236.561 535.722C238.092 537.208 239.076 538.944 239.493 540.926C239.91 542.908 239.609 545.078 238.602 547.486C237.595 549.894 236.242 551.664 234.548 552.775C232.853 553.886 230.936 554.435 228.778 554.393C226.642 554.356 224.446 553.862 222.211 552.917C219.888 551.952 217.994 550.734 216.486 549.253C215 547.777 214.037 546.046 213.647 544.047C213.258 542.048 213.542 539.851 214.549 537.443C215.556 535.035 216.904 533.287 218.593 532.198C220.283 531.109 222.173 530.578 224.27 530.583C226.361 530.61 228.579 531.108 230.903 532.073L230.898 532.095ZM230.402 533.266C228.869 532.619 227.411 532.781 226.028 533.752C224.644 534.723 223.236 536.947 221.77 540.464C220.309 543.959 219.726 546.555 219.998 548.248C220.27 549.94 221.175 551.099 222.712 551.725C224.161 552.33 225.602 552.141 227.029 551.179C228.457 550.218 229.915 547.982 231.381 544.465C232.842 540.97 233.403 538.369 233.082 536.688C232.76 535.008 231.872 533.876 230.424 533.271L230.402 533.266Z" fill="#FFAA1D"/>
<path d="M166.153 501.514L168.974 497.673L189.676 512.883L186.855 516.725L166.153 501.514Z" fill="#FFAA1D"/>
<path d="M111.236 486.635L112.328 485.715C113.383 486.931 114.319 487.747 115.079 488.198C115.84 488.649 116.642 488.712 117.456 488.406C118.271 488.099 119.363 487.389 120.71 486.27L148.134 463.574C149.367 462.545 150.217 461.664 150.68 460.952C151.143 460.24 151.219 459.488 150.925 458.723C150.631 457.958 150.006 457.001 149.074 455.86L146.126 452.284C144.825 450.709 143.518 449.576 142.188 448.858C140.858 448.14 139.448 447.776 137.959 447.768C136.469 447.76 134.873 448.124 133.142 448.877C131.411 449.63 129.527 450.652 127.48 451.987L126.435 450.727C127.699 449.869 129.276 448.661 131.168 447.082C131.91 446.479 132.953 445.571 134.302 444.336C135.669 443.128 137.038 441.804 138.418 440.435C139.898 442.353 141.582 444.503 143.503 446.846C145.418 449.211 147.139 451.299 148.64 453.128C149.338 453.961 150.235 455.048 151.315 456.363C152.395 457.678 153.592 459.089 154.864 460.587C156.135 462.085 157.424 463.61 158.735 465.139C160.046 466.669 161.3 468.14 162.525 469.534L161.432 470.454C160.323 469.273 159.41 468.461 158.671 468.016C157.932 467.57 157.148 467.534 156.329 467.862C155.504 468.213 154.434 468.929 153.12 470.008L125.923 492.522C124.576 493.642 123.671 494.557 123.181 495.286C122.714 496.02 122.611 496.79 122.907 497.649C123.208 498.486 123.817 499.508 124.796 500.754L123.704 501.674C123.038 500.802 122.194 499.68 121.125 498.321C120.055 496.962 118.89 495.511 117.628 493.969C116.475 492.568 115.312 491.211 114.143 489.876C112.975 488.541 112.011 487.439 111.246 486.591L111.236 486.635Z" fill="#FFAA1D"/>
<path d="M82.3565 444.062L113.309 407.427C114.538 406.001 115.214 404.755 115.337 403.687C115.461 402.619 115.357 401.733 115.043 401.057L116.29 400.381C116.756 401.418 117.347 402.623 118.064 403.997C118.781 405.37 119.525 406.726 120.264 408.104C121.222 409.857 122.116 411.48 122.946 412.972C123.776 414.464 124.488 415.649 125.088 416.507L123.841 417.182C122.605 415.11 121.513 413.955 120.559 413.741C119.605 413.527 118.286 414.419 116.624 416.423L92.3887 444.218L90.7249 443.844L123.502 439.437C125.779 439.156 127.59 438.77 128.923 438.231C130.256 437.691 131.167 437.057 131.684 436.31C132.202 435.564 132.374 434.694 132.189 433.65C132.004 432.606 131.59 431.441 130.93 430.127L132.177 429.451C132.771 430.75 133.414 432.037 134.079 433.328C134.744 434.62 135.385 435.813 135.996 436.929C136.539 437.937 137.04 438.819 137.477 439.57C137.914 440.321 138.344 441 138.772 441.586L137.525 442.261C136.834 441.5 135.849 440.906 134.521 440.491C133.214 440.081 131.343 440.01 128.9 440.3L83.5772 446.201C83.3979 445.858 83.1965 445.509 83.0001 445.139C82.8037 444.769 82.6023 444.42 82.4231 444.077L82.3565 444.062ZM105.276 423.058L106.523 422.382L116.671 441.002L115.073 441.063L105.276 423.058Z" fill="#FFAA1D"/>
<path d="M57.3294 382.939C57.1462 382.198 57.2613 381.478 57.6699 380.801C58.0834 380.101 58.9922 379.583 60.3519 379.236C61.6351 378.918 63.199 378.803 64.9941 378.903C66.8115 379.008 69.0974 379.102 71.852 379.185L71.9008 379.383C69.6363 380.645 67.6829 381.768 66.0799 382.783C64.4769 383.799 63.0202 384.474 61.737 384.791C60.3551 385.134 59.3219 385.065 58.6153 384.579C57.9087 384.094 57.4759 383.531 57.3172 382.889L57.3294 382.939ZM62.0135 373.292C61.0295 372.278 60.5656 371.335 60.6169 370.484C60.6683 369.633 60.9609 368.953 61.4505 368.434C61.9129 367.931 62.5522 367.679 63.3907 367.681C64.2292 367.683 65.1355 368.212 66.1196 369.226C67.0643 370.208 67.912 371.517 68.6899 373.137C69.4679 374.757 70.5531 376.772 71.9407 379.205L71.7505 379.326C69.512 377.984 67.549 376.867 65.879 376.002C64.214 375.115 62.9238 374.219 61.9963 373.265L62.0135 373.292ZM66.1015 389.222C66.4672 387.905 67.134 386.493 68.1462 384.996C69.1585 383.498 70.3813 381.582 71.8099 379.269L72.0317 379.319C71.9664 381.892 71.9709 384.154 72.0601 386.038C72.1493 387.923 72 389.521 71.6565 390.843C71.2636 392.176 70.6771 393.024 69.9141 393.412C69.1512 393.8 68.4358 393.872 67.7359 393.668C67.1025 393.479 66.5733 393.034 66.1484 392.332C65.7234 391.631 65.7209 390.605 66.1015 389.222ZM71.7261 379.227C71.7892 376.56 71.7847 374.298 71.7127 372.441C71.6407 370.583 71.7678 368.98 72.1285 367.686C72.5041 366.325 73.1006 365.433 73.8414 365.04C74.6044 364.652 75.342 364.585 76.0269 364.855C76.6481 364.995 77.1823 365.418 77.6022 366.142C78.0222 366.865 78.0419 367.919 77.6663 369.28C77.3006 370.596 76.6166 371.981 75.6044 373.478C74.5749 374.949 73.3692 376.892 71.9652 379.304L71.7211 379.249L71.7261 379.227ZM71.8448 379.114C74.1193 377.807 76.0555 376.656 77.6535 375.664C79.2737 374.676 80.7082 373.996 81.9792 373.628C83.3733 373.336 84.4287 373.41 85.1181 373.867C85.8297 374.33 86.2624 374.894 86.4334 375.585C86.6044 376.276 86.4942 376.974 86.1251 377.683C85.7337 378.388 84.8421 378.934 83.4109 379.288C82.0783 379.618 80.5145 379.733 78.7071 379.583C76.9169 379.461 74.631 379.367 71.8936 379.311L71.8448 379.114ZM71.8393 379.346L72.0222 379.154C74.2115 380.508 76.1744 381.625 77.8444 382.49C79.5366 383.359 80.849 384.26 81.7543 385.209C82.7383 386.223 83.2022 387.166 83.1509 388.017C83.0995 388.868 82.8069 389.548 82.3173 390.068C81.8427 390.521 81.2034 390.773 80.3649 390.771C79.5485 390.774 78.6323 390.289 77.631 389.248C76.6863 388.267 75.8386 386.957 75.0335 385.354C74.2284 383.752 73.1653 381.741 71.8171 379.341L71.8393 379.346Z" fill="#FFAA1D"/>
<path d="M49.8351 311.421C49.8869 308.286 50.3937 305.719 51.3332 303.716C52.2948 301.717 53.3941 299.936 54.6481 298.4C55.3705 297.467 55.4634 296.742 54.927 296.225C54.3906 295.708 53.0967 295.347 51.0725 295.126L51.0887 293.498C52.9011 293.625 55.0661 293.739 57.5889 293.816C60.1338 293.898 63.4951 293.977 67.722 294.041L67.7008 295.692C65.6063 295.99 63.8867 296.28 62.5641 296.565C61.2415 296.851 60.0815 297.243 59.1333 297.729C58.1851 298.216 57.2464 298.867 56.3343 299.711C54.6072 301.071 53.3504 302.724 52.554 304.713C51.7576 306.701 51.3556 308.802 51.3206 311.032C51.2902 313.45 51.8548 315.604 53.0415 317.479C54.2282 319.354 55.9261 320.925 58.1303 322.212C60.3345 323.5 62.9512 324.507 65.9855 325.212C69.0197 325.918 72.3333 326.312 75.9314 326.375C79.6232 326.435 83.0026 326.122 86.0154 325.47C89.0332 324.796 91.63 323.818 93.8158 322.491C96.0015 321.164 97.6898 319.562 98.8633 317.658C100.059 315.758 100.681 313.614 100.701 311.241C100.743 309.292 100.38 307.276 99.6181 305.17C98.8783 303.069 97.6961 301.382 96.1108 300.14C94.7108 298.8 93.1272 297.861 91.3602 297.324C89.5883 296.81 87.1774 296.338 84.0906 295.971L84.1118 294.32C88.4768 294.392 91.9911 294.412 94.6719 294.409C97.3527 294.405 99.6192 294.378 101.476 294.306L101.46 295.934C99.4228 296.082 98.1396 296.4 97.5984 296.838C97.0795 297.28 97.1196 298.035 97.7682 299.09C98.9748 300.876 100.023 302.744 100.931 304.719C101.834 306.717 102.247 309.234 102.205 312.325C102.13 317.016 101.048 321.109 98.9577 324.602C96.8729 328.073 93.87 330.755 89.9985 332.635C86.127 334.516 81.4933 335.433 76.0851 335.337C70.7657 335.261 66.1392 334.175 62.1785 332.096C58.2178 330.017 55.1663 327.211 52.9799 323.666C50.8156 320.126 49.7525 316.041 49.8301 311.443L49.8351 311.421Z" fill="#FFAA1D"/>
<path d="M68.9588 265.321C69.6124 262.204 70.8295 259.587 72.6424 257.431C74.4503 255.296 76.8856 253.792 79.9704 252.923C83.0553 252.055 86.8457 252.09 91.3641 253.035C95.8602 253.976 99.3538 255.437 101.813 257.458C104.272 259.478 105.889 261.823 106.664 264.491C107.435 267.182 107.509 270.066 106.856 273.182C106.212 276.255 105.017 278.876 103.216 281.083C101.416 283.289 99.0026 284.798 95.9449 285.649C92.8873 286.501 89.1018 286.443 84.6057 285.503C80.1095 284.562 76.5937 283.096 74.1076 281.093C71.6215 279.089 69.9822 276.739 69.1773 273.994C68.3947 271.255 68.3202 268.371 68.9416 265.294L68.9588 265.321ZM70.3392 265.608C69.8452 268.014 70.804 270.281 73.2652 272.395C75.7042 274.505 80.053 276.205 86.2673 277.484C92.4815 278.764 97.125 278.945 100.163 277.972C103.201 277 104.976 275.324 105.475 272.896C105.959 270.533 105.023 268.272 102.628 266.172C100.238 264.05 95.9167 262.333 89.7024 261.054C83.466 259.769 78.8175 259.61 75.73 260.595C72.6424 261.58 70.8455 263.251 70.3614 265.613L70.3392 265.608Z" fill="#FFAA1D"/>
<path d="M114.409 244.553C113.687 246.419 112.712 247.855 111.474 248.905C110.258 249.961 108.888 250.562 107.38 250.736C105.895 250.915 104.34 250.682 102.753 250.07C100.804 249.305 99.4105 248.246 98.5284 246.883C97.6684 245.524 97.1246 244.003 96.9189 242.325C96.7133 240.648 96.6607 238.911 96.7784 237.142C96.8961 235.374 96.9666 233.712 97.0666 232.126C97.1394 230.557 97.0514 229.185 96.7977 228.033C96.5439 226.88 95.9021 226.106 94.8721 225.712L90.373 223.955C88.7863 223.342 87.4231 223.083 86.2735 223.221C85.1239 223.359 84.1907 223.778 83.4516 224.475C82.7125 225.171 82.1233 226.134 81.6445 227.332C81.2549 228.34 80.9734 229.489 80.8052 230.756C80.6369 232.024 80.8513 233.144 81.4211 234.135C82.0569 233.275 82.892 232.671 83.9261 232.32C84.9553 231.992 86.0379 232.049 87.1737 232.49C88.4155 232.979 89.2176 233.765 89.6022 234.854C89.9868 235.943 89.9322 237.119 89.4484 238.339C88.9075 239.71 88.0892 240.551 86.9663 240.882C85.8434 241.212 84.7165 241.146 83.5584 240.699C82.361 240.22 81.5068 239.562 80.9886 238.653C80.4654 237.766 80.0758 236.7 79.7926 235.471C79.5122 234.126 79.4469 232.549 79.6067 230.697C79.7665 228.845 80.2496 226.902 81.056 224.869C81.8102 222.964 82.65 221.404 83.6246 220.178C84.5992 218.952 85.7087 218.059 87.0024 217.487C88.4418 216.785 90.0084 216.554 91.68 216.79C93.3515 217.025 95.2516 217.592 97.4174 218.428L115.709 225.592C116.823 226.028 117.649 226.191 118.231 226.088C118.813 225.986 119.229 225.59 119.494 224.927C119.665 224.476 119.726 224 119.675 223.499C119.625 222.998 119.488 222.361 119.26 221.611L120.64 221.385C121.016 222.612 121.265 223.786 121.319 224.894C121.391 226.029 121.129 227.299 120.568 228.758C120.017 230.172 119.336 231.232 118.548 231.94C117.759 232.649 116.853 233.051 115.857 233.13C114.855 233.232 113.736 233.027 112.494 232.538C113.891 234.414 114.786 236.34 115.137 238.307C115.487 240.273 115.238 242.315 114.412 244.437L114.409 244.553ZM112.471 240.109C112.96 238.866 113.04 237.579 112.764 236.212C112.489 234.845 111.804 233.432 110.764 231.94L97.5726 226.762C98.0764 227.527 98.4243 228.468 98.5671 229.596C98.71 230.723 98.8378 231.917 98.9507 233.178C99.0636 234.439 99.2703 235.698 99.5806 236.909C99.8909 238.121 100.453 239.25 101.267 240.295C102.081 241.341 103.314 242.177 104.945 242.8C106.66 243.465 108.196 243.577 109.547 243.065C110.897 242.552 111.861 241.58 112.432 240.076L112.471 240.109Z" fill="#FFAA1D"/>
<path d="M99.475 187.376C100.302 185.977 101.249 184.768 102.332 183.683C103.432 182.624 104.549 181.803 105.71 181.201C106.897 180.582 108.065 180.262 109.234 180.245C110.403 180.228 111.475 180.539 112.509 181.121C113.745 181.841 114.495 182.756 114.786 183.847C115.077 184.938 114.894 186.062 114.253 187.153C113.607 188.267 112.764 189.01 111.703 189.378C110.663 189.75 109.552 189.617 108.421 188.943C107.347 188.329 106.671 187.501 106.36 186.499C106.049 185.497 106.015 184.51 106.296 183.571C105.479 183.574 104.561 183.927 103.595 184.596C102.629 185.265 101.828 186.133 101.214 187.208C100.568 188.321 100.249 189.532 100.226 190.878C100.203 192.225 100.567 193.612 101.304 195.106C102.045 196.578 103.196 198.096 104.822 199.673C106.426 201.246 108.566 202.822 111.223 204.375C114.663 206.383 117.632 207.586 120.13 207.984C122.627 208.382 124.679 208.167 126.309 207.344C127.934 206.544 129.197 205.382 130.076 203.855C130.648 202.865 131.063 201.746 131.297 200.493C131.532 199.241 131.516 197.862 131.216 196.396C130.916 194.93 130.256 193.406 129.197 191.793L130.312 190.878C131.406 192.126 132.352 193.621 133.184 195.416C134.02 197.189 134.425 199.121 134.42 201.218C134.415 203.315 133.744 205.472 132.424 207.716C130.914 210.29 128.909 212.264 126.42 213.593C123.926 214.944 121.093 215.52 117.944 215.325C114.796 215.13 111.459 214.008 107.94 211.935C104.499 209.927 101.866 207.54 100.035 204.798C98.2044 202.056 97.247 199.16 97.1581 196.133C97.0691 193.106 97.8431 190.18 99.48 187.354L99.475 187.376Z" fill="#FFAA1D"/>
<path d="M104.64 148.304L124.451 164.992C122.961 162.186 122.474 159.583 122.968 157.176C123.462 154.77 124.498 152.648 126.053 150.807C127.265 149.354 128.476 148.321 129.637 147.719C130.797 147.118 131.969 146.775 133.126 146.708C134.377 146.64 135.646 146.902 136.996 147.531C138.324 148.156 139.917 149.26 141.78 150.82L156.383 163.099C157.914 164.375 159.207 164.945 160.241 164.805C161.297 164.669 162.404 163.892 163.61 162.462L164.748 163.416C164.167 164.032 163.301 164.979 162.134 166.232C160.989 167.49 159.894 168.736 158.848 169.969C157.769 171.242 156.763 172.508 155.783 173.756C154.826 175.01 154.098 175.965 153.66 176.566L152.523 175.611C153.569 174.378 154.028 173.269 153.895 172.307C153.784 171.349 152.968 170.21 151.437 168.934L135.33 155.362C134.272 154.471 133.24 153.774 132.245 153.224C131.245 152.696 130.22 152.489 129.181 152.652C128.142 152.815 127.154 153.478 126.172 154.633C125.062 155.945 124.452 157.417 124.332 159.091C124.217 160.744 124.538 162.424 125.346 164.121C126.153 165.817 127.387 167.377 129.054 168.777L142.221 179.87C143.752 181.147 144.986 181.774 145.978 181.717C146.942 181.677 147.953 181.018 148.999 179.785L150.136 180.739C149.582 181.337 148.786 182.184 147.738 183.324C146.689 184.464 145.653 185.653 144.607 186.886C143.528 188.159 142.462 189.481 141.409 190.853C140.355 192.225 139.563 193.259 139.039 193.934L137.901 192.979C139.081 191.565 139.664 190.321 139.622 189.263C139.58 188.204 138.796 187.026 137.265 185.75L106.224 159.615C104.597 158.247 103.156 157.504 101.896 157.407C100.636 157.311 99.3837 158.008 98.1396 159.5L97.0025 158.546C98.0803 157.482 99.0915 156.404 100.014 155.306C101.028 154.112 101.926 152.915 102.708 151.716C103.491 150.516 104.147 149.358 104.655 148.237L104.64 148.304Z" fill="#FFAA1D"/>
<path d="M135.993 116.745C137.078 115.754 138.302 115.283 139.671 115.311C141.039 115.339 142.155 115.869 143.095 116.873C144.008 117.893 144.417 119.081 144.295 120.452C144.173 121.823 143.566 122.969 142.459 123.956C141.352 124.942 140.15 125.418 138.781 125.39C137.412 125.363 136.296 124.832 135.357 123.829C134.444 122.808 134.035 121.62 134.157 120.249C134.274 118.9 134.885 117.732 135.993 116.745ZM150.616 126.651L171.25 149.631C172.571 151.117 173.78 151.855 174.828 151.857C175.876 151.86 177.108 151.251 178.48 150.02L179.489 151.133C178.861 151.644 177.892 152.429 176.583 153.487C175.268 154.567 173.971 155.674 172.681 156.852C171.45 157.975 170.187 159.136 168.936 160.347C167.68 161.58 166.753 162.49 166.15 163.101L165.141 161.988C166.513 160.758 167.263 159.598 167.359 158.547C167.456 157.497 166.857 156.22 165.536 154.734L150.608 138.094C149.169 136.512 147.867 135.567 146.647 135.293C145.427 135.019 144.099 135.536 142.613 136.857L141.605 135.745C142.835 134.833 143.977 133.9 145.03 132.948C146.228 131.865 147.306 130.802 148.219 129.749C149.153 128.7 149.95 127.643 150.604 126.601L150.616 126.651Z" fill="#FFAA1D"/>
<path d="M179.973 104.368C181.542 103.298 182.971 102.64 184.261 102.394C185.535 102.121 186.765 102.141 187.897 102.395C189.117 102.669 190.257 103.298 191.34 104.288C192.423 105.277 193.65 106.764 194.994 108.768L205.628 124.607C206.748 126.257 207.824 127.175 208.864 127.315C209.9 127.478 211.213 127.027 212.749 125.997L213.59 127.235C212.893 127.638 211.811 128.304 210.354 129.189C208.897 130.073 207.479 130.99 206.106 131.917C204.76 132.827 203.458 133.746 202.173 134.693C200.888 135.64 199.935 136.358 199.29 136.842L198.449 135.605C199.791 134.717 200.54 133.767 200.683 132.82C200.831 131.851 200.353 130.555 199.259 128.887L187.527 111.403C186.761 110.252 185.971 109.305 185.152 108.492C184.328 107.7 183.411 107.215 182.393 107.079C181.38 106.922 180.252 107.274 178.987 108.132C177.532 109.111 176.521 110.399 175.957 111.973C175.393 113.548 175.259 115.29 175.585 117.158C175.911 119.026 176.644 120.846 177.85 122.632L187.42 136.879C188.54 138.53 189.567 139.46 190.543 139.679C191.519 139.898 192.647 139.546 193.939 138.67L194.779 139.908C194.11 140.294 193.137 140.891 191.815 141.69C190.494 142.489 189.136 143.349 187.762 144.276C186.416 145.185 185.038 146.134 183.634 147.194C182.231 148.254 181.174 149.019 180.479 149.516L179.639 148.278C181.175 147.248 182.061 146.211 182.312 145.196C182.564 144.18 182.145 142.827 181.025 141.177L168.577 122.623C167.393 120.842 166.219 119.739 165.061 119.292C163.903 118.846 162.499 119.183 160.832 120.277L159.991 119.039C161.32 118.312 162.587 117.548 163.765 116.763C165.106 115.876 166.314 114.959 167.385 114.033C168.455 113.108 169.382 112.198 170.198 111.262L174.528 117.713C173.901 114.589 174.174 111.923 175.297 109.727C176.419 107.532 178.004 105.767 180.007 104.422L179.973 104.368Z" fill="#FFAA1D"/>
<path d="M220.481 107.873C218.282 108.847 216.088 109.38 213.945 109.481C211.801 109.582 209.886 109.082 208.162 108.042C206.443 106.98 205.056 105.27 204.007 102.889C202.957 100.509 202.612 98.3102 202.967 96.3154C203.322 94.3206 204.256 92.5491 205.764 91.0231C207.272 89.4971 209.134 88.2606 211.339 87.2641C213.642 86.2432 215.836 85.7104 217.93 85.6214C220.019 85.5547 221.934 86.0548 223.648 87.1392C225.362 88.2236 226.766 89.9609 227.816 92.3413C228.866 94.7216 229.211 96.9203 228.839 98.8879C228.461 100.878 227.56 102.61 226.101 104.124C224.642 105.637 222.753 106.891 220.449 107.912L220.481 107.873ZM219.951 106.705C221.48 106.022 222.346 104.865 222.604 103.198C222.862 101.531 222.204 98.9592 220.676 95.4923C219.148 92.0255 217.666 89.8045 216.248 88.8565C214.83 87.9085 213.37 87.767 211.847 88.4271C210.422 89.0628 209.551 90.2424 209.288 91.9315C208.998 93.6378 209.628 96.2269 211.179 99.6988C212.729 103.171 214.216 105.369 215.644 106.273C217.094 107.182 218.527 107.34 219.951 106.705ZM231.635 134.154C229.201 135.239 226.863 135.996 224.579 136.415C222.311 136.861 220.331 136.859 218.66 136.414C216.984 135.991 215.829 135.009 215.143 133.503C214.507 132.078 214.548 130.549 215.287 128.92C216.025 127.291 217.361 125.703 219.338 124.166L220.246 124.999C219.509 125.789 219.085 126.743 218.961 127.811C218.855 128.906 219.013 129.967 219.479 131.004C220.33 132.92 221.862 133.987 224.113 134.236C226.364 134.485 228.928 133.966 231.826 132.682C233.769 131.813 235.525 130.739 237.067 129.477C238.614 128.193 239.683 126.755 240.278 125.141C240.874 123.526 240.789 121.829 240.002 120.044C239.384 118.646 238.38 117.721 236.956 117.215C235.549 116.736 233.363 117.13 230.41 118.448L225.852 120.478C224.324 121.16 222.863 121.648 221.442 121.958C220.02 122.268 218.745 122.238 217.605 121.818C216.459 121.421 215.588 120.526 214.97 119.128C214.271 117.573 214.272 115.802 214.97 113.837C215.645 111.868 217.239 109.545 219.717 106.815L220.76 107.049C219.802 108.303 218.998 109.497 218.341 110.655C217.685 111.813 217.579 112.908 218.045 113.945C218.663 115.343 219.96 115.588 221.952 114.706L229.692 111.271C231.734 110.377 233.701 109.817 235.583 109.634C237.465 109.451 239.176 109.718 240.688 110.455C242.201 111.191 243.396 112.508 244.225 114.419C245.118 116.461 245.32 118.674 244.787 121.049C244.253 123.423 242.908 125.778 240.767 128.048C238.599 130.334 235.536 132.35 231.551 134.112L231.635 134.154ZM223.376 88.4534L222.01 88.5193C221.945 86.7332 222.393 84.9458 223.376 83.1621C224.36 81.3784 225.643 80.1282 227.247 79.4165C228.465 78.8741 229.577 78.7977 230.595 79.1429C231.612 79.4881 232.387 80.2916 232.93 81.509C233.536 82.8572 233.59 83.9649 233.136 84.842C232.661 85.7142 232.052 86.3468 231.277 86.6854C230.579 86.9946 229.846 87.0398 229.035 86.8111C228.246 86.5872 227.565 85.9912 227.039 85.0107C226.492 84.0252 226.236 82.5692 226.273 80.6428L227.099 80.5953C225.673 82.0697 224.732 83.3502 224.251 84.4543C223.792 85.5633 223.515 86.8996 223.403 88.4362L223.376 88.4534Z" fill="#FFAA1D"/>
<path d="M287.096 81.8631L287.953 86.5544L262.683 91.1566L261.826 86.4653L287.096 81.8631Z" fill="#FFAA1D"/>
</svg>
